<?xml version="1.0" encoding="utf-8"?>
<!-- Generator: Adobe Illustrator 24.0.3, SVG Export Plug-In . SVG Version: 6.00 Build 0)  -->
<svg version="1.1" id="Ebene_1" xmlns="http://www.w3.org/2000/svg" xmlns:xlink="http://www.w3.org/1999/xlink" x="0px" y="0px"
	 viewBox="0 0 2035.3 402.8" style="enable-background:new 0 0 2035.3 402.8;" xml:space="preserve">
<style type="text/css">
	.st0{fill:none;}
	.st1{fill:#333333;}
</style>
<path class="st0" d="M-270.6-270.8h2500V669h-2500V-270.8z"/>
<g>
	<path class="st1" d="M1045.4,195.3c-16.8,0-28.9,5.5-41.1,11.1v126.7c11.7,1.1,18.5,1.1,29.6,1.1c40.2,0,45.8-18.4,45.8-44.2v-60.5
		C1079.6,210.6,1073.3,195.3,1045.4,195.3L1045.4,195.3z M778.1,188.4c-27.9,0-34.3,15.3-34.3,34.3v10.7h68.6v-10.7
		C812.4,203.7,806,188.4,778.1,188.4z M260.3,320.3c0,15,7.1,22.8,22.7,22.8c16.8,0,26.7-5.5,39-11.1v-30.1h-36.7
		C268,302,260.3,305.2,260.3,320.3L260.3,320.3z M1305.4,195.3c-28,0-37.7,15.3-37.7,34.3V299c0,19.1,9.7,34.4,37.7,34.4
		c27.9,0,37.7-15.3,37.7-34.4v-69.4C1343,210.6,1333.3,195.3,1305.4,195.3z M123.3,398.1H41.1v-199H0v-68.6h41.1V89.3
		c0-55.9,23.2-89.2,89.1-89.2h54.9v68.6h-34.3c-25.7,0-27.3,9.6-27.3,27.5l-0.1,34.3h62l-7.3,68.6h-54.9L123.3,398.1L123.3,398.1z
		 M404.3,398.6h-68.5l-3-17.3c-31.3,17.3-59.2,20.1-77.6,20.1c-50.3,0-77-33.6-77-80c0-54.8,31.2-74.3,87-74.3H322v-11.8
		c0-28-3.2-36.2-46.2-36.2h-70.3l6.9-68.6h76.8c94.3,0,115,29.8,115,105.3L404.3,398.6L404.3,398.6z M637.3,204.1
		c-42.6-7.3-54.9-8.9-75.4-8.9c-36.9,0-48,8.1-48,39.4v59.2c0,31.3,11.1,39.5,48,39.5c20.5,0,32.8-1.6,75.4-9v66.9
		c-37.3,8.4-61.7,10.6-82.2,10.6c-88.3,0-123.4-46.4-123.4-113.5v-48c0-67.1,35.1-113.6,123.4-113.6c20.6,0,44.9,2.2,82.2,10.6
		V204.1L637.3,204.1z M894.6,288.3H743.8v5.5c0,31.3,11.1,39.5,48,39.5c33.1,0,53.3-1.6,95.9-9v66.9c-41.1,8.4-62.4,10.6-102.7,10.6
		c-88.3,0-123.4-46.4-123.4-113.5v-54.9c0-58.7,26-106.7,116.5-106.7s116.5,47.5,116.5,106.7V288.3z M1161.8,289.6
		c0,64.8-18.5,112.1-130.7,112.1c-40.5,0-64.3-3.6-109-10.4V20.7L1004.3,7v129.6c17.8-6.6,40.8-10,61.7-10
		c82.2,0,95.9,36.9,95.9,96.1L1161.8,289.6L1161.8,289.6z M1425.3,291c0,55.9-23.1,110.1-119.7,110.1s-120.1-54.2-120.1-110.1v-54
		c0-55.9,23.5-110.2,120.1-110.2S1425.3,181,1425.3,237V291L1425.3,291z M1688.6,291c0,55.9-23.1,110.1-119.7,110.1
		s-120.1-54.2-120.1-110.1v-54c0-55.9,23.5-110.2,120.1-110.2S1688.6,181,1688.6,237V291L1688.6,291z M1958.8,398.1h-89.1
		l-75.3-125.8v125.8h-82.2V20.7L1794.4,7v242.9l75.3-119.4h89.1l-82.3,130.3L1958.8,398.1z M1568.6,195.3
		c-27.9,0-37.6,15.3-37.6,34.3V299c0,19.1,9.7,34.4,37.6,34.4s37.8-15.3,37.8-34.4v-69.4C1606.4,210.6,1596.5,195.3,1568.6,195.3
		L1568.6,195.3z M2005.7,351.1c13.8,0,24.9,11.3,24.9,25.4c0,14.3-11,25.5-25,25.5c-13.9,0-25.1-11.2-25.1-25.5
		c0-14.1,11.3-25.4,25.1-25.4H2005.7z M2005.6,355.1c-11.2,0-20.3,9.6-20.3,21.4c0,12.1,9.1,21.5,20.4,21.5
		c11.3,0.1,20.3-9.5,20.3-21.4S2017,355,2005.6,355.1L2005.6,355.1L2005.6,355.1z M2000.9,391.3h-4.5V363c2.4-0.3,4.6-0.7,8-0.7
		c4.3,0,7.1,0.9,8.8,2.1c1.7,1.2,2.6,3.2,2.6,5.9c0,3.7-2.5,6-5.5,6.9v0.2c2.5,0.5,4.2,2.7,4.7,6.9c0.7,4.4,1.3,6.1,1.8,7h-4.7
		c-0.7-0.9-1.4-3.5-1.9-7.2c-0.7-3.6-2.5-5-6.1-5h-3.1L2000.9,391.3L2000.9,391.3z M2000.9,375.6h3.3c3.7,0,6.9-1.4,6.9-4.9
		c0-2.5-1.8-5-6.9-5c-1.5,0-2.5,0.1-3.3,0.2V375.6L2000.9,375.6z"/>
</g>
</svg>
