<?xml version="1.0" encoding="utf-8"?>
<!-- Generator: Adobe Illustrator 24.0.3, SVG Export Plug-In . SVG Version: 6.00 Build 0)  -->
<svg version="1.1" id="Ebene_1" xmlns="http://www.w3.org/2000/svg" xmlns:xlink="http://www.w3.org/1999/xlink" x="0px" y="0px"
	 viewBox="0 0 2500 1045" style="enable-background:new 0 0 2500 1045;" xml:space="preserve">
<style type="text/css">
	.st0{fill:#333333;}
</style>
<path class="st0" d="M175.7,407.7c0-27.1,22.2-37.5,59-37.5c52.8,0,119.4,16,172.2,44.4V251.4c-57.6-22.9-114.6-31.9-172.2-31.9
	C93.8,219.5,0,293.1,0,416c0,191.7,263.9,161.1,263.9,243.8c0,31.9-27.8,42.4-66.7,42.4c-57.6,0-131.2-23.6-189.6-55.6v165.3
	c64.6,27.8,129.9,39.6,189.6,39.6c144.4,0,243.8-71.5,243.8-195.8C440.3,448.7,175.7,485.5,175.7,407.7L175.7,407.7z M645.1,80.6
	l-169.4,36.1L475,673c0,102.8,77.1,178.5,179.9,178.5c56.9,0,98.6-10.4,121.5-22.9v-141c-22.2,9-131.9,41-131.9-61.8V379.2h131.9
	V231.3H644.4L645.1,80.6z M992.4,282.7l-11.1-51.4h-150v607.6h173.6V427.1c41-53.5,110.4-43.7,131.9-36.1V231.3
	C1114.6,223,1033.3,207.7,992.4,282.7L992.4,282.7z M1179.2,231.3h174.3v607.6h-174.3V231.3L1179.2,231.3z M1179.2,178.5l174.3-37.5
	V0l-174.3,36.8V178.5L1179.2,178.5z M1716,219.5c-68.1,0-111.8,31.9-136.1,54.2l-9-43.1h-152.8v809.7l173.6-36.8l0.7-196.5
	c25,18.1,61.8,43.8,122.9,43.8c124.3,0,237.5-100,237.5-320.1C1952.1,329.2,1837.5,219.5,1716,219.5L1716,219.5z M1674.3,698
	c-41,0-65.3-14.6-81.9-32.6l-0.7-257.6c18.1-20.1,43.1-34,82.6-34c63.2,0,106.9,70.8,106.9,161.8
	C1781.2,628.5,1738.2,698,1674.3,698L1674.3,698z M2500,537.5c0-177.8-86.1-318.1-250.7-318.1c-165.3,0-265.3,140.3-265.3,316.7
	c0,209,118.1,314.6,287.5,314.6c82.6,0,145.1-18.8,192.4-45.1V666.7c-47.2,23.6-101.4,38.2-170.1,38.2
	c-67.4,0-127.1-23.6-134.7-105.6h339.6C2498.6,590.3,2500,554.2,2500,537.5L2500,537.5z M2156.9,471.6c0-78.5,47.9-111.1,91.7-111.1
	c42.4,0,87.5,32.6,87.5,111.1H2156.9z"/>
</svg>
