<svg xmlns="http://www.w3.org/2000/svg" viewBox="0 0 754.58 181.09"><defs><style>.cls-1{fill:#111146;}</style></defs><title>newsletter-icon</title><g id="Ebene_2" data-name="Ebene 2"><g id="Zeichnungseb."><path class="cls-1" d="M17.17,17.93a4.06,4.06,0,0,0-2.8,4.92c.75,3,1.54,6,2.33,9,.56,2.11,1.29,4.18,1.95,6.27S20.06,42.05,20.8,44s1.54,3.93,2.37,5.88l3,7.08c.89,2.08,1.89,4.13,2.83,6.19,1.9,4.15,3.92,8.25,5.92,12.35.75,1.54,1.56,3,2.35,4.55,1.06,2,2.07,4.08,3.18,6.07s2.35,4.2,3.52,6.3c.86,1.53,1.68,3.08,2.58,4.58,3,5,5.88,9.94,8.93,14.85a163.29,163.29,0,0,0,11,15.41c1.5,1.89,3.11,3.69,4.69,5.52l5.16,6c1.12,1.29,2.42,2.45,3.62,3.66l5.86,5.9c1.16,1.18,2.41,2.28,3.64,3.4,2.45,2.24,5,4.36,7.63,6.39a91.05,91.05,0,0,0,15.37,9.51,122.28,122.28,0,0,0,17.66,6.88,125.94,125.94,0,0,0,18.45,4.2c6.43,1,12.91,1.53,19.39,2s13.08.53,19.62.45,13-.36,19.44-1A202.58,202.58,0,0,0,245,172c11.94-3.64,23.65-8,35.41-12.15,3.45-1.22,6.85-2.62,10.26-4l8.54-3.31c1.41-.54,2.82-1.07,4.21-1.67l14.18-6.06,5.6-2.4c1.24-.53,2.44-1.2,3.65-1.8l13.58-6.72c.4-.2.78-.45,1.16-.67,1.17-.66,2.34-1.32,3.5-2l8-4.55c3.65-2.09,7.17-4.4,10.73-6.65,1.29-.82,2.62-1.6,3.88-2.47l6.89-4.79c4-2.76,7.91-5.61,11.83-8.47,4.42-3.23,8.86-6.43,13.22-9.74l.81-.63a3.93,3.93,0,0,0,1-1.76,4,4,0,0,0-2.8-4.92,3.83,3.83,0,0,0-3.08.4c-7.17,5.45-14.52,10.69-21.81,16-1.79,1.29-3.63,2.51-5.45,3.77s-3.37,2.45-5.12,3.56l-12,7.57c-1.33.85-2.75,1.58-4.12,2.36l-8.12,4.62c-1,.6-2.07,1.22-3.14,1.75l-6.9,3.42-7.94,3.93c-.88.44-1.76.87-2.67,1.26l-15.74,6.73-2.48,1.06q-6.51,2.53-13,5c-3.15,1.23-6.28,2.49-9.47,3.63l-16.39,5.83c-7,2.51-14.15,4.85-21.32,7a204.86,204.86,0,0,1-29.41,6.46,214.69,214.69,0,0,1-29.13,1.46,240.8,240.8,0,0,1-29.63-2,128.21,128.21,0,0,1-31-8.53,98.09,98.09,0,0,1-9.94-5,94,94,0,0,1-9.63-6.45,125.39,125.39,0,0,1-11-9.88l-7.59-7.65c-.44-.44-.83-.91-1.23-1.38L77.62,128,74,123.78c-1.12-1.31-2.19-2.66-3.25-4q-2.65-3.44-5.12-7c-1.8-2.62-3.46-5.36-5.13-8.08-1.28-2.09-2.52-4.2-3.78-6.3q-1.7-2.86-3.41-5.73c-1.17-2-2.23-4-3.34-6-.9-1.62-1.84-3.22-2.7-4.86l-3.89-7.4c-2-3.85-3.86-7.79-5.76-11.69-1.53-3.13-2.91-6.34-4.36-9.51-1.22-2.66-2.31-5.38-3.45-8.07L27.43,39c-.61-1.58-1.12-3.18-1.63-4.8s-1.09-3.35-1.54-5.06c-.73-2.82-1.47-5.63-2.17-8.45a4,4,0,0,0-3.9-2.94,3.92,3.92,0,0,0-1,.14Zm12.2,26.24c.12.26.22.52.33.78l-.33-.78Zm122.54,127,.3,0-.3,0Zm58.42.52-.54.08.54-.08Z"/><path class="cls-1" d="M17.22,19.68a4.24,4.24,0,0,0-1.84,2.39c-.75,2-1.41,4-2.17,6-.91,2-1.92,4-3,5.91C9,36.1,7.82,38.18,6.66,40.31L3.42,46.25A46.94,46.94,0,0,0,.16,53.17a3.92,3.92,0,0,0,.41,3.08A4.05,4.05,0,0,0,3,58.09,4,4,0,0,0,6,57.68a4.18,4.18,0,0,0,1.83-2.39l.19-.49c1-2.26,2.22-4.41,3.4-6.57q2-3.73,4.08-7.44c1.38-2.5,2.82-4.94,4.06-7.52,1.4-2.94,2.36-6,3.5-9.08a3.87,3.87,0,0,0-.41-3.08,4,4,0,0,0-2.39-1.84,4.15,4.15,0,0,0-1.05-.14,3.94,3.94,0,0,0-2,.55Z"/><path class="cls-1" d="M18.82,20a4,4,0,0,0,0,5.66c1.1,1,2.2,2,3.36,3a42.38,42.38,0,0,0,4.34,3.06c1.23.79,2.54,1.45,3.84,2.12S32.8,35.12,34,35.69c2.89,1.34,5.81,2.63,8.78,3.78s6.14,1.18,9.25,1.32c1.52.07,3,.13,4.57.15a4,4,0,0,0,0-8c-2.9,0-5.82-.12-8.7-.39a23.94,23.94,0,0,1-4.3-1.3c-2.69-1.15-5.36-2.35-8-3.66-1.5-.75-3-1.52-4.45-2.34a37.61,37.61,0,0,1-3.68-2.48c-1-.88-2.05-1.8-3.05-2.74a4.2,4.2,0,0,0-2.88-1.15A3.9,3.9,0,0,0,18.82,20Z"/><path class="cls-1" d="M516.12,22.63c-.91,1.35-1,3.23-1.2,4.81-.2,1.33-.4,2.65-.66,4-.55,2.71-1.21,5.41-2,8.08s-1.57,5.59-2.38,8.38a108.91,108.91,0,0,1-3.38,10.41A43.85,43.85,0,0,1,502,66.33a24.3,24.3,0,0,1-3.31,3.34,13.36,13.36,0,0,1-1.5.88c-.4.12-.79.23-1.2.32s-.67,0-1,0-.73-.22-1.09-.36a14.23,14.23,0,0,1-1.61-.92,14.06,14.06,0,0,1-1.48-1.51A20,20,0,0,1,489.06,65a29.91,29.91,0,0,1-1.05-3.2c-.34-1.27-.59-2.57-.84-3.86-.47-2.43-.88-4.86-1.28-7.3s-.55-5-.69-7.45c-.08-1.31-.09-2.6-.11-3.91s.05-2.89-.07-4.32a4.21,4.21,0,0,0-1.16-2.83,4,4,0,0,0-5.66,0A4.21,4.21,0,0,0,477,35c-.19,2.79-.41,5.57-.74,8.34s-.9,5.83-1.62,8.69a108,108,0,0,1-4.27,13.84,44.25,44.25,0,0,1-5,8.55c-1.67,2.08-3.52,4-5.33,6A4,4,0,0,0,465.67,86c1.23-1.32,2.46-2.65,3.67-4a54.93,54.93,0,0,0,4.18-5.32,48.92,48.92,0,0,0,5.64-11.47c.3-.82.58-1.64.84-2.47,1.35,5.85,4.17,11.71,9.68,14.58a15.3,15.3,0,0,0,3.47,1.31,11,11,0,0,0,4.49,0,15,15,0,0,0,4.21-1.53,13.93,13.93,0,0,0,1.9-1.35c.69-.54,1.35-1.1,2-1.7A31.34,31.34,0,0,0,511,67.19a52,52,0,0,0,3.94-8.5c.49-1.33.93-2.67,1.35-4,0,3.37,0,6.72,0,10.08a31.67,31.67,0,0,0,.42,4.86,13.37,13.37,0,0,0,1.44,3.85,10.27,10.27,0,0,0,1.4,1.92,15.1,15.1,0,0,0,2,1.85,14.33,14.33,0,0,0,8.34,3.17,15.37,15.37,0,0,0,2.34-.26,9,9,0,0,0,2.08-.67,16.31,16.31,0,0,0,2-1,17.34,17.34,0,0,0,2.35-1.73,18.39,18.39,0,0,0,2.93-3.24,24.15,24.15,0,0,0,2.5-4.1A46.22,46.22,0,0,0,546.62,63c.69-2.17,1.36-4.33,1.93-6.53.42-1.63.84-3.25,1.23-4.88l.35.26a18.21,18.21,0,0,0,1.9,1.24,38.63,38.63,0,0,0,5.81,2.36c.8.29,1.6.62,2.39.94A26.78,26.78,0,0,1,565,59a28.87,28.87,0,0,1,3.79,3.71,24.84,24.84,0,0,1,2.56,4.38,22.12,22.12,0,0,1,1.28,4.17c0,.35,0,.71,0,1.06,0,.06-.07.11-.1.16a9.74,9.74,0,0,1-.7.74,10.88,10.88,0,0,1-1.11.62l-1,.32a4,4,0,1,0,2.12,7.71,24.25,24.25,0,0,0,3.47-1.41,8.8,8.8,0,0,0,1.86-1.34,14.42,14.42,0,0,0,1.27-1.32c.35-.43.68-.88,1-1.34a8.94,8.94,0,0,0,.9-2.11l.09-.6a8.63,8.63,0,0,0,.17-1.68,12.36,12.36,0,0,0-.24-2.43,24.28,24.28,0,0,0-1.36-4.67,26.7,26.7,0,0,0-3.8-6.85A34.33,34.33,0,0,0,573,55.4,27.79,27.79,0,0,0,570.22,53a24.87,24.87,0,0,0-2.89-2,36.26,36.26,0,0,0-3.55-1.72c-2.18-.94-4.41-1.71-6.62-2.56a15.69,15.69,0,0,1-2.44-1.36l-.41-.39a1.62,1.62,0,0,1-.1-.18,25,25,0,0,1-.72-2.42,11.28,11.28,0,0,0-1.54-4,4.36,4.36,0,0,0-2.39-1.84,3.92,3.92,0,0,0-3.08.41,14.45,14.45,0,0,0-1.18.88,6.2,6.2,0,0,0-1.24,2.3l-.12.6c-.09.35-.16.71-.23,1.07s-.1.58-.17.87c-.22,1-.44,2.11-.67,3.17-.38,1.79-.77,3.6-1.23,5.37a107.89,107.89,0,0,1-4,13.2A26.13,26.13,0,0,1,535.07,69a19.33,19.33,0,0,1-2.14,2.2,15.15,15.15,0,0,1-1.4.83,11.5,11.5,0,0,1-1.39.39h-.53a11.69,11.69,0,0,1-1.43-.41,14.81,14.81,0,0,1-1.55-.89,13.15,13.15,0,0,1-1.21-1.15,9.55,9.55,0,0,1-.6-1,12.69,12.69,0,0,1-.42-1.61c-.14-1.6-.12-3.21-.12-4.82v-5.2q0-5.55,0-11.1c0-3.51,0-7-.07-10.52,0-1.54,0-3.08-.08-4.62,0-.89,0-1.8-.09-2.7a16.46,16.46,0,0,0-.58-4.75,4.13,4.13,0,0,0-2.79-2.8,4.33,4.33,0,0,0-1-.14,4.24,4.24,0,0,0-3.47,2Zm54.93,43.71.08.18-.08-.18Zm1.74,5.25a3.11,3.11,0,0,1-.06.44l.06-.44Zm-.23,1c0,.06,0,.11-.07.17s0-.11.07-.17Zm-.25.21-.08.1.08-.1Z"/><path class="cls-1" d="M527.31,37.59c-3,.17-6.09.31-9.1.69-1.91.24-3.8.51-5.69.83s-3.66.7-5.49,1.07a4,4,0,0,0-.95,7.31,4.19,4.19,0,0,0,3.08.4c2.51-.5,5-1,7.53-1.42,3.53-.42,7.07-.69,10.62-.88a4.2,4.2,0,0,0,2.83-1.17,4,4,0,0,0-2.64-6.84Z"/><path class="cls-1" d="M471.9,4a4,4,0,0,0,8,0,4,4,0,0,0-8,0Z"/><path class="cls-1" d="M624.78,8.69a11.69,11.69,0,0,0-4,1.61A12.37,12.37,0,0,0,617.18,14a20.65,20.65,0,0,0-1.89,3.9,27.21,27.21,0,0,0-1.23,3.87c-.33,1.34-.54,2.71-.77,4.08-.32,1.83-.57,3.69-.78,5.54-.38,3.3-.53,6.61-.69,9.93-.41,8.65-.55,17.3-.6,26,0,.56,0,1.13,0,1.69a4.08,4.08,0,0,0-2.12,1.73,4,4,0,0,0-.41,3.08,4.05,4.05,0,0,0,1.84,2.39,4.13,4.13,0,0,0,.67.31c0,5.83.09,11.66.44,17.48.23,3.83.46,7.65.65,11.48a19.2,19.2,0,0,0-4.82,5.22,13.77,13.77,0,0,0-1.56,4,14.27,14.27,0,0,0-.31,4.37c.25,2.9,1.13,6,3.31,8.09a6.75,6.75,0,0,0,7.66,1,7.6,7.6,0,0,0,3-3,10.42,10.42,0,0,0,.81-2,12.73,12.73,0,0,0,.38-2.68,34.19,34.19,0,0,0,0-3.65c0-1.06-.07-2.12-.11-3.18,0-1.25-.1-2.5-.16-3.76.76-.39,1.54-.75,2.32-1.1a69.72,69.72,0,0,1,13.05-3.46l7.9-1.5c4.61-.87,9.23-1.74,13.86-2.48A3.8,3.8,0,0,0,660,99.45a4.05,4.05,0,0,0,.41-3.08,4.1,4.1,0,0,0-1.84-2.4,4.42,4.42,0,0,0-3.09-.4c-4.6.73-9.18,1.61-13.77,2.46-2.38.44-4.76.91-7.14,1.36a79.76,79.76,0,0,0-12.48,3.06c-.67.24-1.35.5-2,.77l-.09-1.6c-.12-2.22-.26-4.44-.39-6.65s-.19-4.33-.27-6.5c-.14-4-.13-8-.11-11.92v-.26c.63-.29,1.26-.6,1.87-.93a31.48,31.48,0,0,0,7.35-5.64,35,35,0,0,0,3-3.63c.87-1.17,1.68-2.37,2.43-3.62a46.82,46.82,0,0,0,3.8-8.53,65.92,65.92,0,0,0,3.06-15.55,72.56,72.56,0,0,0,.5-11.22,30.57,30.57,0,0,0-.65-4.36,21,21,0,0,0-1.47-4,16.31,16.31,0,0,0-2.28-3.36,15.35,15.35,0,0,0-3.61-3,11.3,11.3,0,0,0-1.74-.87,12.74,12.74,0,0,0-2.12-.75,10.84,10.84,0,0,0-2.61-.31,11.52,11.52,0,0,0-2,.17Zm2.39,7.86c.31.07.61.15.92.24a15.89,15.89,0,0,1,1.78,1,16.32,16.32,0,0,1,1.31,1.32A16,16,0,0,1,632.26,21a19.18,19.18,0,0,1,.87,3.35,43.74,43.74,0,0,1-.1,8.56c-.19,2.08-.38,4.16-.64,6.23a57.47,57.47,0,0,1-3.47,13.34,40,40,0,0,1-4.18,7.26,31,31,0,0,1-4.62,4.68c-.28.21-.57.41-.87.61,0-1.78,0-3.56,0-5.34,0-4.18.16-8.36.25-12.53,0-2.21.2-4.41.31-6.61.16-3.47.37-6.93.79-10.38a43.94,43.94,0,0,1,2.21-9.77,18.72,18.72,0,0,1,1.38-2.57c.19-.22.39-.42.6-.63s.58-.35.88-.51a6.36,6.36,0,0,1,.62-.19,7.67,7.67,0,0,1,.83,0ZM612.63,121.08Zm1.57,0h0Zm-1.78.38-.26.2.26-.2Z"/><path class="cls-1" d="M687.87,23.25a8.43,8.43,0,0,0-1.71,1.44,12.64,12.64,0,0,0-1.42,2,18.53,18.53,0,0,0-1.64,3.89,28.93,28.93,0,0,0-1.05,4.8c-.11.68-.22,1.36-.31,2l-.5.11a25.75,25.75,0,0,1-5.41-.13c-1.07-.17-2.14-.32-3.2-.52l-2.14-.42a24.66,24.66,0,0,1-4.18-1.3c-.9-.41-1.8-.81-2.68-1.28-1.28-.68-2.5-1.46-3.73-2.21a7.39,7.39,0,0,0-4.23-1.31,4.8,4.8,0,0,0-2.51.87,5.24,5.24,0,0,0-1.82,2.06c-1,2.05-1,4.37-1,6.61.05,2.42.14,4.84.25,7.27.06,1.25.14,2.5.23,3.75,0,.51.09,1,.14,1.53l.12,1.11c0,.51.13,1,.23,1.52s.29.73.46,1.08a4,4,0,0,0,7.46-2c.27-4.23.5-8.46.78-12.68a2.8,2.8,0,0,0,0-.41c.38.19.77.36,1.15.54a44,44,0,0,0,5.27,2.08,39.51,39.51,0,0,0,4.56,1c1,.19,1.92.31,2.88.46a30.06,30.06,0,0,0,7.21.39c0,1.29,0,2.57.14,3.85a25,25,0,0,0,.65,4,16.9,16.9,0,0,0,1.54,3.76,10.46,10.46,0,0,0,2.92,3.22,16.42,16.42,0,0,0,4,2.11,20.41,20.41,0,0,0,8.07,1.35,18.36,18.36,0,0,0,8.78-2.7,22.22,22.22,0,0,0,4.24-3.34,27.64,27.64,0,0,0,6,3.27,36.5,36.5,0,0,0,9,2.39c3.53.51,7.07.84,10.61,1.2,4.51.46,9,.92,13.56,1.18A4,4,0,0,0,753.41,59a4.15,4.15,0,0,0-2.83-1.17c-3.68-.22-7.34-.58-11-.93s-7.31-.7-11-1.16a37.66,37.66,0,0,1-8.43-2.14,26.75,26.75,0,0,1-3.87-2.19c.36-.61.71-1.23,1-1.86a58.15,58.15,0,0,0,2.94-6.3,27.14,27.14,0,0,0,2.1-8.48,12.5,12.5,0,0,0-.7-4.41,11.27,11.27,0,0,0-2.21-3.69,9.65,9.65,0,0,0-1.59-1.34,7.34,7.34,0,0,0-1.38-.81,6.79,6.79,0,0,0-5-.32,8.59,8.59,0,0,0-3.72,2.66,13.5,13.5,0,0,0-2.25,3.82,28.73,28.73,0,0,0-1.81,8.88,22.14,22.14,0,0,0,2.55,12.15,21.46,21.46,0,0,1-1.78,1.65,18.81,18.81,0,0,1-2.92,1.75,17.51,17.51,0,0,1-2.46.66,18.07,18.07,0,0,1-2.85,0,19.36,19.36,0,0,1-3.34-.89,14.13,14.13,0,0,1-1.91-1c-.14-.13-.27-.27-.4-.41a11.72,11.72,0,0,1-.6-1.1,17.09,17.09,0,0,1-.69-2.71,44.21,44.21,0,0,1-.08-6.71l.53-.31a17,17,0,0,0,6.1-6.16,20.64,20.64,0,0,0,1.65-4,10.52,10.52,0,0,0,.47-3.74,7.56,7.56,0,0,0-1.15-3.7,6.15,6.15,0,0,0-4.71-2.8l-.5,0a7.37,7.37,0,0,0-3.74,1.08ZM692.54,30l-.44.06h0a3,3,0,0,1,.43-.06Zm22,1.7-.39.05.39-.05Zm-.86.51.12.13c.1.16.19.33.28.49a11,11,0,0,1,.27,1.1,11.06,11.06,0,0,1,0,1.41,34.78,34.78,0,0,1-1.68,5.55c-.32.71-.64,1.42-1,2.12a27.77,27.77,0,0,1,.12-4.91A24.27,24.27,0,0,1,713,33.49a13.58,13.58,0,0,1,.73-1.28ZM728.93,55.8l.33,0-.33,0Z"/></g></g></svg>